<svg xmlns="http://www.w3.org/2000/svg" viewBox="0 0 640 520" role="img"><defs><linearGradient id="bg" x1="0" y1="0" x2="1" y2="1"><stop stop-color="#b9e0e2"/><stop offset="1" stop-color="#eaf2dc"/></linearGradient><linearGradient id="shoe" x1="0" y1="0" x2="1" y2="1"><stop stop-color="#f3b83f"/><stop offset="1" stop-color="#e8793b"/></linearGradient></defs><rect width="640" height="520" fill="url(#bg)"/><circle cx="510" cy="105" r="100" fill="#fff" opacity=".3"/><circle cx="120" cy="130" r="34" fill="#f4c64b" opacity=".45"/><ellipse cx="333" cy="417" rx="205" ry="29" fill="#557a72" opacity=".17"/><path d="M131 346c75-21 129-80 164-150 15-31 44-38 69-14l54 52c20 20 67 37 105 62 34 22 44 53 8 74-53 31-233 43-350 24-56-9-80-28-50-48Z" fill="url(#shoe)"/><path d="M224 316c60-13 106-60 130-111l42 42c-30 46-83 86-146 99Z" fill="#f8dc62"/><path d="m337 232 49 35m-66-9 46 36m-66-8 44 35" stroke="#fff4bc" stroke-width="9" stroke-linecap="round"/><path d="M132 371c94 32 290 18 399-20 16 13 11 35-13 47-70 34-299 42-393 13-26-8-24-30 7-40Z" fill="#fff2db"/><path d="M170 399c108 29 274 13 353-18" fill="none" stroke="#d4be8e" stroke-width="8"/></svg>